<svg width="22" height="16" viewBox="0 0 22 16" fill="none" xmlns="http://www.w3.org/2000/svg">
<path d="M2 0.625H20C20.1658 0.625 20.3252 0.690407 20.4424 0.807617C20.5596 0.924828 20.625 1.08424 20.625 1.25V14C20.625 14.3647 20.4805 14.7148 20.2227 14.9727C19.9648 15.2305 19.6147 15.375 19.25 15.375H2.75C2.38533 15.375 2.03521 15.2305 1.77734 14.9727C1.51948 14.7148 1.375 14.3647 1.375 14V1.25C1.375 1.08424 1.44041 0.924827 1.55762 0.807617C1.64564 0.71959 1.75761 0.66067 1.87793 0.636719L2 0.625ZM12.2979 9.1582L11.4219 9.96094C11.3066 10.0665 11.1563 10.126 11 10.126C10.8436 10.126 10.6924 10.0666 10.5771 9.96094H10.5781L9.70215 9.1582L9.36426 8.84766L9.02637 9.15723L4.55469 13.2568L3.60645 14.125H18.3936L17.4453 13.2568L12.9736 9.15723L12.6357 8.84766L12.2979 9.1582ZM2.625 13.3291L3.46289 12.5615L8.03711 8.36816L8.43945 8L8.03711 7.63184L3.46289 3.43848L2.625 2.6709V13.3291ZM18.5371 3.43848L13.9629 7.63184L13.5605 8L13.9629 8.36816L18.5371 12.5615L19.375 13.3291V2.6709L18.5371 3.43848ZM4.55469 2.74316L10.6621 8.34277L11 8.65234L11.3379 8.34277L17.4453 2.74316L18.3936 1.875H3.60645L4.55469 2.74316Z" fill="black" fill-opacity="0.4" stroke="black"/>
</svg>
